<svg width="48" height="48" viewBox="0 0 48 48" fill="none" xmlns="http://www.w3.org/2000/svg">
<path d="M39.0848 21.9639L39.456 22.1855L39.4433 21.7533C39.1663 12.3145 30.5213 4.7998 19.7981 4.7998C8.90161 4.7998 0 12.5616 0 22.2196C0 26.9921 2.35367 31.629 6.14175 34.8794L5.46381 39.534L5.46337 39.5374C5.39255 40.0777 5.45594 40.5476 5.69555 40.9272C5.93585 41.308 6.33034 41.5616 6.84721 41.7156C7.07703 41.7841 7.32565 41.7739 7.55034 41.7303C7.77699 41.6864 7.99743 41.6045 8.1769 41.5142L13.6836 38.6872C15.5666 39.201 17.7842 39.58 19.7981 39.58C22.0553 39.58 24.2193 39.25 26.2323 38.6412C25.787 38.419 25.3695 38.122 24.9984 37.7501C24.0855 36.8355 23.6248 35.6399 23.6163 34.4416C22.3243 34.7476 20.9605 34.9107 19.5509 34.9107C17.9664 34.9107 16.468 34.6488 14.9853 34.2254C14.9516 34.2158 14.9188 34.2061 14.8865 34.1964C14.668 34.1313 14.4707 34.0726 14.1275 34.1006C13.7357 34.1327 13.4564 34.2724 13.2814 34.3716L10.0116 36.3236C9.96514 36.3519 9.92569 36.3754 9.89031 36.3918C9.89842 36.358 9.90917 36.3184 9.92309 36.2672L9.9295 36.2437L10.6511 33.4323C10.6882 33.2874 10.7147 33.1655 10.7157 33.0353C10.7168 32.9038 10.6919 32.7786 10.6504 32.6241C10.6088 32.4695 10.5637 32.3391 10.4957 32.2263C10.4245 32.1083 10.3363 32.0225 10.2276 31.9437C6.90945 29.538 5.06222 26.1215 5.06222 22.2714C5.06222 15.1886 11.3129 9.61207 19.5509 9.61207C27.4492 9.61207 33.8679 14.737 34.3926 21.3854L34.4164 21.6869C35.281 21.2807 36.2433 21.1514 37.17 21.2991C37.8627 21.3896 38.5108 21.6211 39.0848 21.9639Z" fill="#0082EF"/>
<path fill-rule="evenodd" clip-rule="evenodd" d="M34.3567 28.0393C34.7588 28.4421 35.2497 28.7022 35.7658 28.8212C35.8236 28.8344 35.8819 28.846 35.9403 28.856C35.9991 28.8655 36.058 28.8739 36.1169 28.8802C37.8465 29.203 39.3196 29.8541 40.6572 31.1948C40.7539 31.2911 40.8474 31.3901 40.9389 31.4897C41.2122 31.7629 41.6542 31.7629 41.9275 31.4897C42.1824 31.2337 42.1987 30.8293 41.9764 30.5545C41.9611 30.5355 41.9448 30.5171 41.9275 30.4992C41.897 30.4686 41.8639 30.4423 41.8297 30.4186C41.7614 30.3544 41.6941 30.2891 41.6274 30.2227C40.3192 28.9121 39.6771 27.4795 39.3397 25.7887C39.3344 25.6934 39.3239 25.5986 39.3087 25.5044C39.2924 25.4007 39.2698 25.2974 39.2424 25.1953C39.1126 24.7203 38.8624 24.2712 38.4903 23.8978C37.3488 22.7541 35.4983 22.7541 34.3567 23.8978C33.2157 25.0415 33.2157 26.8956 34.3567 28.0393Z" fill="#2DBC00"/>
<path fill-rule="evenodd" clip-rule="evenodd" d="M42.7775 31.9955C42.3754 32.3988 42.1158 32.8901 41.997 33.4072C41.9839 33.4651 41.9723 33.5236 41.9623 33.582C41.9529 33.641 41.9444 33.7 41.9381 33.759C41.616 35.4914 40.9664 36.9682 39.6283 38.3088C39.5322 38.4052 39.4334 38.4989 39.334 38.59C39.0613 38.8638 39.0613 39.3072 39.3346 39.5805C39.5895 39.8364 39.9931 39.8527 40.268 39.63C40.2864 39.6147 40.3048 39.5984 40.3226 39.5805C40.3531 39.5499 40.3794 39.5173 40.4036 39.4831C40.4672 39.4146 40.5318 39.3472 40.5985 39.2803C41.9067 37.9697 43.516 37.1461 45.2036 36.8086C45.2987 36.8028 45.3933 36.7923 45.4874 36.777C45.5909 36.7607 45.6939 36.738 45.7959 36.7101C46.2705 36.5806 46.539 36.5098 46.9111 36.1369C48.0526 34.9932 48.0526 33.1392 46.9111 31.9955C45.7701 30.8518 43.919 30.8518 42.7775 31.9955Z" fill="#0082EF"/>
<path fill-rule="evenodd" clip-rule="evenodd" d="M37.2444 39.6208C37.186 39.6108 37.1272 39.6024 37.0678 39.5961C35.3386 39.2733 33.865 38.6222 32.5275 37.2815C32.4308 37.1852 32.3372 37.0867 32.2463 36.9866C31.973 36.7134 31.5305 36.7133 31.2577 36.9872C31.0023 37.2426 30.986 37.647 31.2083 37.9218C31.2235 37.9408 31.2398 37.9592 31.2577 37.9771C31.2882 38.0077 31.3213 38.034 31.3554 38.0577C31.4232 38.1219 31.491 38.1872 31.5573 38.2536C32.8654 39.5642 33.5076 40.9973 33.845 42.6876C33.8508 42.7829 33.8613 42.8777 33.8765 42.9719C33.8928 43.0756 33.9149 43.1789 33.9427 43.281C34.072 43.756 34.3222 44.2051 34.6948 44.5785C35.8364 45.7222 37.6869 45.7222 38.8279 44.5785C39.9694 43.4348 39.9694 41.5807 38.8279 40.4375C38.4258 40.0342 37.935 39.7741 37.4189 39.655C37.361 39.6419 37.3027 39.6303 37.2444 39.6208Z" fill="#FB6500"/>
<path fill-rule="evenodd" clip-rule="evenodd" d="M31.2454 34.7151C31.5681 32.9827 32.2176 31.5059 33.5551 30.1652C33.6519 30.0689 33.7501 29.9751 33.85 29.884C34.1222 29.6102 34.1222 29.1669 33.8495 28.8936C33.594 28.6377 33.1904 28.6213 32.9161 28.8441C32.8971 28.8593 32.8787 28.8757 32.8614 28.8936C32.8309 28.9241 32.8041 28.9568 32.7805 28.991C32.7163 29.0594 32.6517 29.1268 32.5849 29.1937C31.2773 30.5043 29.8473 31.1481 28.1597 31.4856C28.0651 31.4914 27.9705 31.5019 27.8759 31.5172C27.7724 31.5335 27.6694 31.5562 27.5679 31.5841C27.0934 31.7136 26.645 31.9643 26.2724 32.3371C25.1309 33.4808 25.1309 35.3348 26.2724 36.4786C27.414 37.6223 29.2645 37.6223 30.406 36.4786C30.8081 36.0757 31.0682 35.5839 31.187 35.0668C31.2002 35.0089 31.2117 34.9505 31.2212 34.892C31.2312 34.833 31.239 34.7741 31.2454 34.7151Z" fill="#FFCC00"/>
</svg>
